<svg width="132" height="71" viewBox="0 0 132 71" fill="none" xmlns="http://www.w3.org/2000/svg">
<path d="M66 12.122L9.10345 0L0 47.3333L9.10345 58.878L66 71L122.897 58.878L132 47.3333L122.897 0L66 12.122Z" fill="#385902"/>
<path d="M46 53.5C49.906 53.8829 56 52.5 56 52.5L59.25 50.25L65.5 48V28L59 23.5L41 23.5L41 53C41 53 44.0182 53.3057 46 53.5Z" fill="url(#paint0_linear_22_75)"/>
<path d="M26 23.5L22 25.5L22 43L36 51.5L41 53L41 23.5L26 23.5Z" fill="url(#paint1_linear_22_75)"/>
<path d="M36 51.5L22 43L22 25.5L26 23.5L41 23.5M41 23.5L59 23.5L65.5 28V48L59.25 50.25L56 52.5C56 52.5 49.906 53.8829 46 53.5C44.0182 53.3057 41 53 41 53L36 51.5C30.5327 48.1805 27.4673 46.3195 22 43M41 53L41 23.5" stroke="white" stroke-linejoin="round"/>
<path d="M110.5 25.5L106.5 23.5L91.5 23.5L91.5 53L96.5 51.5C101.967 48.1805 105.033 46.3195 110.5 43L110.5 25.5Z" fill="url(#paint2_linear_22_75)"/>
<path d="M67 28L67 48L73.25 50.25L76.5 52.5C76.5 52.5 82.594 53.8829 86.5 53.5C88.4818 53.3057 91.5 53 91.5 53L91.5 23.5L73.5 23.5L67 28Z" fill="url(#paint3_linear_22_75)"/>
<path d="M91.5 23.5L73.5 23.5L67 28L67 48L73.25 50.25L76.5 52.5C76.5 52.5 82.594 53.8829 86.5 53.5C88.4818 53.3057 91.5 53 91.5 53L96.5 51.5C101.967 48.1805 105.033 46.3195 110.5 43L110.5 25.5L106.5 23.5L91.5 23.5ZM91.5 53L91.5 23.5" stroke="white" stroke-linejoin="round"/>
<defs>
<linearGradient id="paint0_linear_22_75" x1="65.5" y1="38.5335" x2="22" y2="38.5335" gradientUnits="userSpaceOnUse">
<stop stop-color="#73B609"/>
<stop offset="1" stop-color="#93E610"/>
</linearGradient>
<linearGradient id="paint1_linear_22_75" x1="65.5" y1="38.5335" x2="22" y2="38.5335" gradientUnits="userSpaceOnUse">
<stop stop-color="#73B609"/>
<stop offset="1" stop-color="#93E610"/>
</linearGradient>
<linearGradient id="paint2_linear_22_75" x1="67" y1="38.5335" x2="110.5" y2="38.5335" gradientUnits="userSpaceOnUse">
<stop stop-color="#73B609"/>
<stop offset="1" stop-color="#93E610"/>
</linearGradient>
<linearGradient id="paint3_linear_22_75" x1="67" y1="38.5335" x2="110.5" y2="38.5335" gradientUnits="userSpaceOnUse">
<stop stop-color="#73B609"/>
<stop offset="1" stop-color="#93E610"/>
</linearGradient>
</defs>
</svg>
